<svg width="32" height="32" viewBox="0 0 32 32" fill="none" xmlns="http://www.w3.org/2000/svg">
<rect width="32" height="32" fill="#2C3E50"/>
<g id="Frame 33">
<g id="Main ">
<rect x="-1048" y="-788" width="1280" height="860" rx="20" fill="#F8FAFB"/>
</g>
<g id="Frame 19">
<g id="businessman-showing-a-project-sketch_svgrepo.com" clip-path="url(#clip0_0_1)">
<g id="Group">
<g id="Group_2">
<path id="Vector" d="M31.5305 25.487C30.2477 24.4184 28.7135 22.8602 28.472 22.2443C28.214 21.5839 28.1814 19.0684 28.312 17.1182C28.3161 17.0623 28.3295 16.5664 28.2955 16.3634L27.8562 13.7351C28.446 14.662 29.0234 15.7083 29.4907 16.6945C29.6676 17.0675 30.038 17.2862 30.425 17.2862C30.5736 17.2862 30.7245 17.2545 30.8664 17.1872C31.3841 16.9438 31.6037 16.3271 31.3596 15.811C30.8832 14.804 28.5066 10.0193 26.0217 8.9954C25.9947 8.9863 25.5092 8.77119 24.9243 8.71872L24.3805 9.48713L23.6345 8.92686C23.6334 8.92809 23.6309 8.92854 23.628 8.93002C23.3145 9.06317 22.8294 9.40627 22.6033 9.60828C22.1444 10.0078 21.834 10.4177 21.5613 10.7794C21.1268 11.3547 20.8879 11.6712 20.2195 11.8374C19.156 12.1035 18.0792 11.3432 18.0733 11.3392C17.6137 10.9998 16.9656 11.0979 16.6269 11.5575C16.5932 11.6043 16.5637 11.6807 16.5385 11.7471L13.7081 10.3274V8.42868H14.1154C14.7472 8.42868 15.26 7.9576 15.26 7.37693C15.26 6.79652 14.7467 6.32544 14.1154 6.32544H1.14339C0.512385 6.32544 0 6.79652 0 7.37693C0 7.9576 0.51232 8.42868 1.14339 8.42868H1.53483V18.3155H7.01494V27.2073H4.93913L4.93268 28.6064H10.1403L10.1468 27.2073H8.06978V18.3166H13.7103L13.7104 10.658L16.4494 12.0427C16.405 12.4015 16.5349 12.7723 16.8455 13.0018C16.907 13.0475 18.1637 13.9594 19.7586 13.9594C20.0666 13.9594 20.3901 13.9243 20.7184 13.8431C21.3685 13.6812 21.8447 13.4129 22.2236 13.106L22.9349 17.3562C22.9792 17.6136 23.0654 17.8475 23.1856 18.0567C22.114 19.8956 20.2585 23.6195 20.2731 27.3143C20.2756 28.0323 20.858 28.6118 21.575 28.6118C21.5764 28.6118 21.578 28.6118 21.5799 28.6118C22.2999 28.6089 22.8801 28.024 22.8769 27.304C22.8661 24.1727 24.5813 20.8278 25.4979 19.2674C25.5449 19.2674 25.5927 19.2631 25.639 19.261C25.6268 20.6774 25.702 22.3091 26.0464 23.1912C26.661 24.7664 29.3342 27.0463 29.8638 27.4887C30.1063 27.6906 30.4022 27.79 30.6962 27.79C31.0697 27.79 31.4402 27.6306 31.6988 27.3208C32.1585 26.7678 32.0838 25.947 31.5305 25.487ZM13.37 18.002H13.3695H1.87612V8.42868H13.3696V10.2131L11.6217 9.34721L11.5212 9.64448L13.3691 10.5444L13.3701 18.0019H13.37V18.002ZM25.2575 14.6826L25.2455 14.6849L24.4685 13.9233L24.3909 9.58459L24.4036 9.58265L25.7463 13.71L25.2575 14.6826Z" fill="#475C6F"/>
<path id="Vector_2" d="M23.8051 8.71251C25.2756 8.71251 26.4674 7.52051 26.4674 6.05022C26.4674 4.58 25.2756 3.38794 23.8051 3.38794C22.3353 3.38794 21.1429 4.58 21.1429 6.05022C21.1429 7.52051 22.335 8.71251 23.8051 8.71251Z" fill="#475C6F"/>
<path id="Vector_3" d="M10.4441 10.5417C10.0436 10.5417 9.71897 10.8664 9.71897 11.2669C9.71897 11.4764 9.80842 11.6647 9.95054 11.7971L9.22014 13.3668C9.12791 13.3591 9.03439 13.3703 8.94552 13.3989L7.60205 11.6856C7.64574 11.5914 7.66788 11.4922 7.66788 11.3897C7.66788 10.9904 7.34286 10.6653 6.94342 10.6653C6.54411 10.6653 6.21927 10.9903 6.21927 11.3897C6.21927 11.5259 6.25994 11.6609 6.33506 11.7779L4.79158 13.4233C4.70232 13.3845 4.60932 13.365 4.51432 13.365C4.11488 13.365 3.78992 13.6898 3.78992 14.0889C3.78992 14.4884 4.11488 14.8134 4.51432 14.8134C4.91376 14.8134 5.23878 14.4884 5.23878 14.0889C5.23878 13.9787 5.21258 13.8697 5.16243 13.7697L6.74418 12.0852C6.90766 12.1338 7.08463 12.121 7.24179 12.0484L8.54821 13.7144C8.47779 13.8287 8.44088 13.957 8.44088 14.0895C8.44088 14.4889 8.76584 14.8139 9.16528 14.8139C9.5642 14.8139 9.88871 14.489 9.88871 14.0895C9.88871 13.9005 9.81333 13.7204 9.67953 13.5849L10.4213 11.9909C10.4289 11.9911 10.4364 11.9921 10.4441 11.9921C10.8445 11.9921 11.1692 11.6675 11.1692 11.267C11.1692 10.8665 10.8445 10.5417 10.4441 10.5417Z" fill="#475C6F"/>
</g>
</g>
</g>
</g>
</g>
<defs>
<clipPath id="clip0_0_1">
<rect width="32" height="32" fill="white"/>
</clipPath>
</defs>
</svg>
