<svg width="32" height="32" viewBox="0 0 32 32" fill="none" xmlns="http://www.w3.org/2000/svg">
<path d="M9.01575 16.5508C8.59459 16.5508 8.19903 16.7502 7.9835 17.0705L7.36208 17.9918L7.32904 17.933V16.7994L8.67139 16.3217C9.1099 16.166 9.39356 15.794 9.39356 15.3739C9.39356 15.0456 9.21436 14.7361 8.91542 14.5444C8.61565 14.3531 8.22835 14.3017 7.87903 14.4063L7.73286 14.45L7.89968 14.1533C8.06649 13.8562 8.15485 13.5239 8.15485 13.1923C8.15485 12.6143 7.62633 12.1443 6.97642 12.1443C6.52719 12.1443 6.12378 12.3661 5.92228 12.7237L4.89539 14.5506L4.03408 18.3149L4.02582 23.1607L4.34995 24.6295H3.20001V27.2H9.39356V24.6295H8.15485V22.1703L8.91129 21.1612L10.036 18.5217C10.1578 18.2327 10.2194 17.9297 10.2194 17.6213C10.2194 17.0312 9.67929 16.5508 9.01575 16.5508ZM8.14288 15.1022C8.24197 15.0728 8.34809 15.0868 8.43356 15.1411C8.51903 15.1955 8.56775 15.2803 8.56775 15.3739C8.56775 15.4918 8.48848 15.5957 8.36543 15.6398L7.32904 16.0085V15.3457L8.14288 15.1022ZM8.56775 25.364V26.4656H4.02582V25.364H8.56775ZM9.26267 18.2635L8.19821 20.7888L7.32904 21.9478V24.6295H5.19021L4.85163 23.1243V18.4233L5.65844 14.8352L6.66097 13.0528C6.72084 12.9452 6.84182 12.8787 6.97642 12.8787C7.17049 12.8787 7.32904 13.0197 7.32904 13.1923C7.32904 13.4104 7.27083 13.6293 7.16099 13.8254L6.50324 14.9953V18.1067L7.29601 19.5168L8.69163 17.4483C8.75934 17.3477 8.88363 17.2853 9.01575 17.2853C9.22427 17.2853 9.39356 17.4358 9.39356 17.6213C9.39356 17.8416 9.34979 18.0579 9.26267 18.2635Z" fill="#475C6F"/>
<path d="M27.6521 24.6295L27.9663 23.2327L27.9742 18.3869L27.1401 14.6428L26.0777 12.7237C25.8766 12.3661 25.4728 12.1443 25.0236 12.1443C24.3737 12.1443 23.8452 12.6143 23.8452 13.1923C23.8452 13.5235 23.9335 13.8562 24.1003 14.1537L24.2667 14.4497L24.121 14.406C23.7721 14.3009 23.3844 14.3527 23.0846 14.544C22.7856 14.7361 22.6064 15.0456 22.6064 15.3739C22.6064 15.7944 22.8901 16.166 23.3282 16.3217L24.671 16.7994V17.933L24.6379 17.9918L24.0165 17.0708C23.801 16.7502 23.4054 16.5508 22.9843 16.5508C22.3207 16.5508 21.7806 17.0312 21.7806 17.6213C21.7806 17.9297 21.8422 18.2327 21.964 18.5217L23.0454 21.0863L23.8452 22.1703V24.6295H22.6064V27.2H28.8V24.6295H27.6521ZM23.6342 15.6398C23.5115 15.5957 23.4323 15.4918 23.4323 15.3739C23.4323 15.2803 23.481 15.1958 23.5664 15.1411C23.6519 15.0864 23.7572 15.0724 23.8571 15.1022L24.671 15.3457V16.0085L23.6342 15.6398ZM23.8022 20.7888L22.7377 18.2635C22.6502 18.0579 22.6064 17.8416 22.6064 17.6213C22.6064 17.4358 22.7757 17.2853 22.9843 17.2853C23.1164 17.2853 23.2407 17.3477 23.3084 17.4483L24.704 19.5165L25.4968 18.1064V14.995L24.839 13.8254C24.7292 13.6297 24.671 13.4104 24.671 13.1923C24.671 13.0197 24.8295 12.8787 25.0236 12.8787C25.1578 12.8787 25.2788 12.9452 25.339 13.0524L26.3416 14.8349L27.1484 18.4233V23.1247L26.8098 24.6295H24.671V21.9478L23.8022 20.7888ZM27.9742 26.4656H23.4323V25.364H27.9742V26.4656Z" fill="#475C6F"/>
<path d="M21.2187 11.4099H22.1936V9.20661H21.2187C21.087 8.70867 20.8685 8.239 20.5667 7.80532L21.2554 7.19244L19.5039 5.63472L18.8144 6.24687C18.3263 5.97844 17.7986 5.78418 17.2387 5.66704V4.80005H14.7613V5.66704C14.2014 5.78418 13.6733 5.97844 13.1857 6.24687L12.4965 5.63436L10.745 7.19208L11.4337 7.80495C11.1319 8.239 10.9135 8.7083 10.7817 9.20624H9.80646V11.4095H10.7813C10.913 11.9075 11.1315 12.3771 11.4333 12.8108L10.7446 13.4237L12.4961 14.9814L13.1287 14.4188C13.1237 14.4559 13.1159 14.4923 13.1159 14.5305C13.1159 14.8573 13.3099 15.1422 13.5994 15.3053C13.5556 15.4074 13.5288 15.5168 13.5288 15.6321C13.5288 16.1385 13.9916 16.5501 14.561 16.5501H17.4514C18.0208 16.5501 18.4836 16.1385 18.4836 15.6321C18.4836 15.5164 18.4568 15.407 18.413 15.3053C18.7025 15.1426 18.8965 14.8573 18.8965 14.5305C18.8965 14.4967 18.8895 14.4644 18.8854 14.4317L19.5035 14.9814L21.255 13.4237L20.5663 12.8108C20.8685 12.3775 21.0866 11.9078 21.2187 11.4099ZM17.4518 15.8164H14.5615C14.4479 15.8164 14.355 15.7338 14.355 15.6328C14.355 15.5319 14.4479 15.4492 14.5615 15.4492H17.4518C17.5653 15.4492 17.6582 15.5319 17.6582 15.6328C17.6582 15.7338 17.5653 15.8164 17.4518 15.8164ZM17.8647 14.7148H17.4518H14.5615H14.1485C14.035 14.7148 13.9421 14.6322 13.9421 14.5312C13.9421 14.4302 14.035 14.3476 14.1485 14.3476H17.8647C17.9782 14.3476 18.0711 14.4302 18.0711 14.5312C18.0711 14.6322 17.9782 14.7148 17.8647 14.7148ZM16.4195 11.3423C16.8989 11.1903 17.2453 10.7864 17.2453 10.3082C17.2453 9.70087 16.6896 9.20661 16.0066 9.20661C15.3237 9.20661 14.7679 9.70087 14.7679 10.3082C14.7679 10.7864 15.1143 11.1903 15.5937 11.3423V13.6132H14.7679V12.6382L14.5619 12.5321C13.6704 12.0727 13.1163 11.2208 13.1163 10.3082C13.1163 8.89117 14.4132 7.73775 16.0066 7.73775C17.6 7.73775 18.8969 8.89117 18.8969 10.3082C18.8969 11.2204 18.3428 12.0727 17.4514 12.5321L17.2453 12.6382V13.6132H16.4195V11.3423ZM16.0066 10.6755C15.7787 10.6755 15.5937 10.5109 15.5937 10.3082C15.5937 10.1055 15.7787 9.94103 16.0066 9.94103C16.2345 9.94103 16.4195 10.1055 16.4195 10.3082C16.4195 10.5109 16.2345 10.6755 16.0066 10.6755ZM20.4734 10.9817C20.359 11.5876 20.0985 12.1476 19.6996 12.6456L19.4973 12.8982L20.0877 13.424L19.5039 13.9433L18.9126 13.4174L18.6281 13.5977C18.5526 13.6455 18.47 13.6932 18.3816 13.7406C18.2863 13.691 18.183 13.6514 18.0711 13.6312V13.0528C19.0955 12.4421 19.7227 11.4092 19.7227 10.3075C19.7227 8.48503 18.0559 7.00259 16.0066 7.00259C13.9574 7.00259 12.2905 8.48503 12.2905 10.3075C12.2905 11.4088 12.9177 12.4418 13.9421 13.0524V13.6312C13.8277 13.6517 13.7224 13.6925 13.625 13.7439C13.535 13.6954 13.4499 13.6469 13.3723 13.5977L13.0878 13.4174L12.4965 13.9433L11.9127 13.424L12.5031 12.8982L12.3008 12.6456C11.9019 12.1476 11.6414 11.5876 11.527 10.9817L11.4684 10.6755H10.6323V9.94103H11.4684L11.5266 9.63478C11.641 9.02887 11.9015 8.46887 12.3004 7.97093L12.5027 7.71829L11.9123 7.19244L12.4961 6.6732L13.0874 7.19832L13.3715 7.01838C13.9314 6.66366 14.561 6.43194 15.2423 6.33023L15.5871 6.27808V5.53448H16.4129V6.27808L16.7573 6.32986C17.4386 6.43158 18.0682 6.66329 18.6281 7.01802L18.9122 7.19795L19.5035 6.67284L20.0873 7.19208L19.4969 7.71792L19.6992 7.97057C20.0981 8.46851 20.3586 9.02851 20.473 9.63441L20.5316 9.94103H21.3677V10.6755H20.5316L20.4734 10.9817Z" fill="#475C6F"/>
<path d="M16.4129 17.2854H15.5871V18.0198H16.4129V17.2854Z" fill="#475C6F"/>
<path d="M16.4129 18.7542H15.5871V19.4886H16.4129V18.7542Z" fill="#475C6F"/>
<path d="M16.4129 20.2229H15.5871V20.9573H16.4129V20.2229Z" fill="#475C6F"/>
<path d="M16.4129 21.6919H15.5871V22.4263H16.4129V21.6919Z" fill="#475C6F"/>
</svg>
