<svg width="20" height="20" viewBox="0 0 20 20" fill="none" xmlns="http://www.w3.org/2000/svg">
<g clip-path="url(#clip0_6_1144)">
<path d="M9.99998 1.66667C8.01551 1.65918 6.09352 2.36012 4.57979 3.64339C3.06606 4.92665 2.05997 6.70798 1.74252 8.6669C1.42508 10.6258 1.81712 12.6337 2.84811 14.3294C3.87911 16.025 5.48138 17.2971 7.36664 17.9167C7.78331 17.9833 7.91664 17.725 7.91664 17.5V16.0917C5.60831 16.5917 5.11664 15 5.11664 15C4.96101 14.4824 4.62364 14.0385 4.16664 13.75C3.40831 13.2333 4.22498 13.25 4.22498 13.25C4.48656 13.2838 4.73711 13.3764 4.9579 13.5207C5.17868 13.665 5.36399 13.8573 5.49998 14.0833C5.73146 14.4949 6.11608 14.7985 6.57019 14.928C7.0243 15.0575 7.51119 15.0026 7.92498 14.775C7.96294 14.3525 8.14887 13.9571 8.44998 13.6583C6.66664 13.475 4.68331 12.7583 4.68331 9.58333C4.6592 8.75122 4.9578 7.94201 5.51664 7.325C5.26292 6.60786 5.29273 5.82089 5.59998 5.125C5.59998 5.125 6.29998 4.9 7.89164 5.95833C9.25631 5.59148 10.6936 5.59148 12.0583 5.95833C13.65 4.88333 14.35 5.125 14.35 5.125C14.6572 5.82089 14.687 6.60786 14.4333 7.325C14.9921 7.94201 15.2907 8.75122 15.2666 9.58333C15.2666 12.7667 13.3166 13.4667 11.4583 13.675C11.6584 13.8762 11.8133 14.1178 11.9125 14.3837C12.0116 14.6496 12.0528 14.9336 12.0333 15.2167V17.5C12.0333 17.725 12.1666 17.9917 12.5916 17.9167C14.4735 17.2981 16.0734 16.0295 17.1046 14.3382C18.1359 12.647 18.5309 10.6437 18.2189 8.68752C17.9069 6.73138 16.9083 4.95034 15.4022 3.66374C13.896 2.37714 11.9808 1.66914 9.99998 1.66667Z" fill="#475C6F" fill-opacity="0.5"/>
</g>
<defs>
<clipPath id="clip0_6_1144">
<rect width="20" height="20" fill="white"/>
</clipPath>
</defs>
</svg>
