<svg width="32" height="32" viewBox="0 0 32 32" fill="none" xmlns="http://www.w3.org/2000/svg">
<path d="M9.875 24.4375V15.5625L4.75 11.625V22.5625C4.75 23.8125 5.375 24.4375 6.625 24.4375" fill="#475C6F" fill-opacity="0.5"/>
<path d="M9.625 15.5L16 20.3125L22.375 15.5V9.375L16 14.1875L9.625 9.375" fill="#475C6F" fill-opacity="0.5"/>
<path d="M22.125 24.4375V15.5625L27.25 11.625V22.5625C27.25 23.8125 26.625 24.4375 25.375 24.4375" fill="#475C6F" fill-opacity="0.5"/>
<path d="M4.75 11.75L9.875 15.6875V9.5625L8 8.125C6.3125 6.8125 4.75 8.125 4.75 9.75" fill="#475C6F" fill-opacity="0.5"/>
<path d="M27.25 11.75L22.125 15.6875V9.5625L24 8.125C25.6875 6.8125 27.25 8.125 27.25 9.75" fill="#475C6F" fill-opacity="0.5"/>
</svg>
