<svg width="20" height="20" viewBox="0 0 20 20" fill="none" xmlns="http://www.w3.org/2000/svg">
<path d="M5.05988 17.893C4.27011 17.656 3.7067 16.9587 3.64094 16.1368L2.67276 4.03449C2.57966 2.87076 3.49894 1.875 4.66639 1.875H15.3336C16.5011 1.875 17.4203 2.87076 17.3272 4.03449L16.3591 16.1368C16.2933 16.9587 15.7299 17.656 14.9401 17.893L10.5747 19.2026C10.1998 19.3151 9.80018 19.3151 9.4253 19.2026L5.05988 17.893Z" fill="#475C6F" fill-opacity="0.5"/>
<path d="M16.25 3.125H10V18.4375L15 16.875L16.25 3.125Z" fill="#475C6F" fill-opacity="0.5"/>
<path d="M5.9375 10.9375L5.3125 5H15L14.6875 6.875H7.1875L7.5 9.0625H14.375L13.75 15L10 16.25L6.25 15L5.9375 11.875H7.8125L8.125 13.4375L10 14.0625L11.875 13.4375L12.1875 10.9375H5.9375Z" fill="#F8FAFB"/>
</svg>
