<svg width="32" height="32" viewBox="0 0 32 32" fill="none" xmlns="http://www.w3.org/2000/svg">
<path d="M18.7024 6H11.2975C10.0307 6 9 6.93078 9 8.07504V23.925C9 25.0691 10.0307 26 11.2975 26H18.7024C19.9694 26 21 25.0691 21 23.9251V8.07504C21 6.93078 19.9694 6 18.7024 6ZM15 24.7743C14.4866 24.7743 14.0689 24.397 14.0689 23.9334C14.0689 23.4697 14.4866 23.0926 15 23.0926C15.5133 23.0926 15.931 23.4697 15.931 23.9334C15.931 24.397 15.5133 24.7743 15 24.7743ZM19.6398 8.62777V21.9151H10.3601V8.62777H19.6398Z" fill="#475C6F" fill-opacity="0.5"/>
</svg>
