<svg width="20" height="20" viewBox="0 0 20 20" fill="none" xmlns="http://www.w3.org/2000/svg">
<path d="M10 18.3333C14.6024 18.3333 18.3334 14.6024 18.3334 10C18.3334 5.39763 14.6024 1.66667 10 1.66667C5.39765 1.66667 1.66669 5.39763 1.66669 10C1.66669 14.6024 5.39765 18.3333 10 18.3333Z" fill="#475C6F" fill-opacity="0.5"/>
<path fill-rule="evenodd" clip-rule="evenodd" d="M7.82282 5.95163C7.82282 6.47042 7.42782 6.89025 6.81011 6.89025C6.21644 6.89025 5.8214 6.47042 5.83365 5.95163C5.8214 5.40763 6.2164 5 6.82194 5C7.42782 5 7.81098 5.40763 7.82282 5.95163ZM5.88332 13.6746V7.63175H7.76132V13.6742L5.88332 13.6746Z" fill="#F8FAFB"/>
<path fill-rule="evenodd" clip-rule="evenodd" d="M9.2664 9.56025C9.2664 8.80654 9.24157 8.16396 9.21674 7.63258H10.848L10.9347 8.46042H10.9718C11.2189 8.07725 11.8367 7.49696 12.8376 7.49696C14.073 7.49696 14.9998 8.31258 14.9998 10.0912V13.6754H13.1218V10.3266C13.1218 9.54767 12.8502 9.01662 12.1706 9.01662C11.6514 9.01662 11.3427 9.37496 11.2193 9.72071C11.1697 9.8445 11.1452 10.0172 11.1452 10.1906V13.6754H9.26715V9.56025H9.2664Z" fill="#F8FAFB"/>
</svg>
