<svg width="32" height="32" viewBox="0 0 32 32" fill="none" xmlns="http://www.w3.org/2000/svg">
<path d="M27.9249 11.2399L16.4049 6.48132C16.2735 6.42686 16.1366 6.3999 16 6.3999C15.8635 6.3999 15.7265 6.42686 15.5951 6.48132L4.07511 11.2399C3.55246 11.4557 3.20001 12.0622 3.20001 12.7447C3.20001 13.4273 3.55246 14.0338 4.07511 14.2495L5.12001 14.681V17.3157L3.90741 20.321L5.05261 21.0306L5.76001 19.2767L6.46741 21.0301L7.61256 20.3205L6.40001 17.3157V15.2097L8.32001 16.0028V22.262C8.32001 24.6175 14.1982 24.7999 16 24.7999C17.8018 24.7999 23.68 24.6169 23.68 22.262V16.0028L27.9249 14.2495C28.4476 14.0338 28.8 13.4274 28.8 12.7447C28.8 12.0622 28.4476 11.4557 27.9249 11.2399ZM16 23.2137C12.7219 23.2137 10.6112 22.6707 9.84236 22.262C10.6112 21.8533 12.7219 21.3102 16 21.3102C19.2781 21.3102 21.3888 21.8533 22.1577 22.262C21.3888 22.6707 19.2781 23.2137 16 23.2137ZM22.4 20.7006C20.5671 19.8187 17.2719 19.724 16 19.724C14.7281 19.724 11.433 19.8192 9.60001 20.7006V13.4617C10.045 13.053 12.265 12.3482 16 12.3482C19.7351 12.3482 21.955 13.053 22.4 13.4617V20.7006ZM23.68 14.3309V13.2999C23.68 10.9444 17.8018 10.762 16 10.762C14.1982 10.762 8.32001 10.9449 8.32001 13.2999V14.3309L4.48001 12.7447L16 7.98611L27.52 12.7447L23.68 14.3309Z" fill="#475C6F"/>
</svg>
