<svg width="20" height="20" viewBox="0 0 20 20" fill="none" xmlns="http://www.w3.org/2000/svg">
<g clip-path="url(#clip0_6_1167)">
<path d="M10.0003 11.3853C10.7731 11.3853 11.3996 10.7588 11.3996 9.98594C11.3996 9.21308 10.7731 8.58656 10.0003 8.58656C9.22741 8.58656 8.60089 9.21308 8.60089 9.98594C8.60089 10.7588 9.22741 11.3853 10.0003 11.3853Z" fill="#475C6F" fill-opacity="0.5"/>
<path fill-rule="evenodd" clip-rule="evenodd" d="M10.1031 7.03625C12.489 7.0525 15.0922 7.22656 16.879 8.82C16.9315 8.86688 16.9822 8.91563 17.0315 8.96594C17.4531 9.39563 17.6734 10.0894 17.3331 10.6603C16.635 11.8325 15.0737 12.3438 13.5622 12.6584C11.3015 13.1291 8.9378 13.1328 6.67811 12.7184C5.3778 12.4797 4.04811 12.0613 3.12405 11.1859C2.76436 10.8453 2.45686 10.3972 2.50498 9.89844C2.58311 9.09156 3.35717 8.57375 4.00873 8.22313C5.81842 7.24938 8.02342 7.03156 10.1031 7.03625ZM9.92998 7.40281C7.67248 7.41813 5.22905 7.56219 3.48592 9.00563C3.42498 9.05594 3.36623 9.10875 3.30967 9.16406C3.27311 9.19969 3.2378 9.23688 3.20373 9.275C2.8978 9.61875 2.79248 10.1709 3.08123 10.5838C3.37186 10.9991 3.81311 11.2988 4.26748 11.5431C5.96686 12.4569 7.97498 12.6191 9.9328 12.6259C11.915 12.6331 13.959 12.4525 15.71 11.5472C16.4075 11.1863 17.1925 10.6563 17.1647 9.97375C17.139 9.3475 16.5284 8.96063 16.0712 8.68438C15.9475 8.60969 15.8203 8.54063 15.6912 8.47563C13.9531 7.60469 11.9162 7.39844 9.92998 7.40281Z" fill="#475C6F" fill-opacity="0.5"/>
<path fill-rule="evenodd" clip-rule="evenodd" d="M13.1609 3.34469C14.0337 3.36687 14.4859 4.41625 14.5456 5.19125C14.5575 5.34531 14.5618 5.5 14.56 5.65469C14.5581 5.82219 14.549 5.98969 14.5343 6.15656C14.3503 8.22281 13.4068 10.1906 12.2959 12.0078C11.2093 13.7853 9.88433 15.5578 8.08183 16.3816C7.4859 16.6541 6.77715 16.8222 6.24965 16.5181C5.52652 16.1016 5.44746 15.1272 5.4609 14.3881C5.46433 14.2066 5.47621 14.025 5.49496 13.8441C5.77277 11.1691 7.12871 8.635 8.82558 6.45187C9.81558 5.17812 10.9934 3.91469 12.4606 3.45719C12.6915 3.385 12.875 3.34125 13.1609 3.34469ZM13.119 3.71094C12.0943 3.72719 11.1743 4.48656 10.3596 5.27562C8.21777 7.34969 6.63933 10.1081 6.00433 13.0009C5.95527 13.225 5.91402 13.4506 5.88371 13.6778C5.86027 13.8537 5.84308 14.0306 5.83402 14.2081C5.82683 14.3494 5.82433 14.4909 5.82871 14.6325C5.83183 14.7431 5.83902 14.8537 5.85121 14.9637C5.86027 15.0478 5.87246 15.1316 5.88777 15.2147C5.89933 15.2762 5.91277 15.3375 5.9284 15.3984C5.94121 15.4478 5.95558 15.4969 5.97183 15.5456C6.09965 15.9309 6.42902 16.2991 6.87121 16.3112C7.90277 16.3394 8.87402 15.5872 9.71371 14.7697C11.1878 13.335 12.2862 11.5322 13.1443 9.63719C13.8368 8.10719 14.4703 6.44406 14.1165 4.76C14.1031 4.69625 14.0875 4.63312 14.0696 4.57062C14.055 4.51969 14.0384 4.46937 14.0203 4.41969C13.8828 4.045 13.5593 3.71 13.119 3.71094Z" fill="#475C6F" fill-opacity="0.5"/>
<path fill-rule="evenodd" clip-rule="evenodd" d="M6.90905 3.35843C8.0228 3.38 9.02311 4.13593 9.91124 4.9825C11.5319 6.52718 12.7272 8.49218 13.6341 10.5603C14.3366 12.1625 14.9828 13.9609 14.4084 15.6516C14.2275 16.1844 13.7697 16.6719 13.1594 16.6844C12.0403 16.7069 11.0031 15.8931 10.1031 15.0172C7.8453 12.8191 6.16905 9.91718 5.59468 6.83968C5.55343 6.61968 5.52061 6.39781 5.49811 6.175C5.47968 5.99312 5.46811 5.81031 5.46499 5.6275C5.46249 5.48 5.46561 5.3325 5.47593 5.18562C5.4828 5.0875 5.4928 4.99 5.50624 4.89281C5.51905 4.80156 5.5353 4.71062 5.55561 4.62062C5.56905 4.56093 5.58405 4.50187 5.60124 4.44312C5.76968 3.86718 6.2078 3.35406 6.90905 3.35843ZM6.86686 3.725C6.21468 3.73937 5.91624 4.50843 5.85624 5.04812C5.84405 5.15875 5.83655 5.27031 5.83311 5.38187C5.82874 5.52437 5.83061 5.66718 5.8378 5.80968C5.9403 7.87187 6.86218 9.86562 7.97468 11.6912C9.02218 13.41 10.2872 15.1219 12.0272 16.0019C12.5297 16.2559 13.1403 16.4556 13.5744 16.2156C14.1187 15.9144 14.1856 15.1966 14.2147 14.6616C14.2225 14.5159 14.2234 14.3697 14.2187 14.2237C14.2131 14.0406 14.1987 13.8578 14.1772 13.6759C13.9766 11.9769 13.2241 10.3691 12.3597 8.84968C11.2841 6.95968 9.96624 5.07593 8.10124 4.09187C7.71499 3.88812 7.29686 3.72156 6.86686 3.725Z" fill="#475C6F" fill-opacity="0.5"/>
</g>
<defs>
<clipPath id="clip0_6_1167">
<rect width="20" height="20" fill="white"/>
</clipPath>
</defs>
</svg>
