<svg width="20" height="20" viewBox="0 0 20 20" fill="none" xmlns="http://www.w3.org/2000/svg">
<rect width="20" height="20" fill="#2C3E50"/>
<g id="Frame 33">
<g id="Main ">
<rect x="-254" y="-536" width="1280" height="860" rx="20" fill="#F8FAFB"/>
<g id="Frame 21">
<g id="Social media" filter="url(#filter0_d_0_1)">
<rect x="-170" y="-36" width="232" height="88" rx="4" fill="#F8FAFB" fill-opacity="0.866667" shape-rendering="crispEdges"/>
<g id="Frame 16">
<g id="scrum_svgrepo.com">
<path id="Vector" d="M12.9056 13.3431C12.9456 13.3456 12.9888 13.3506 13.0319 13.3506C13.6425 13.3513 14.2538 13.3475 14.8644 13.3538C14.9981 13.355 15.0381 13.3094 15.0313 13.1813C15.0225 13.0144 15.0294 12.8469 15.0294 12.6406C15.7225 13.1506 16.3925 13.6431 17.08 14.1494C16.3975 14.6519 15.7275 15.145 15.0294 15.6594C15.0294 15.465 15.0294 15.3044 15.0294 15.1438C15.0294 14.9363 15.0294 14.9356 14.8275 14.9356C10.9231 14.9356 7.01813 14.9356 3.11375 14.9356C2.925 14.9356 2.925 14.9356 2.925 14.7456C2.925 14.3338 2.93063 13.9219 2.92188 13.5106C2.91875 13.3769 2.96188 13.3469 3.09 13.3475C5.18938 13.3513 7.28875 13.3544 9.38813 13.3488C10.4644 13.3456 11.3138 12.9 11.8756 11.9725C12.8894 10.2975 11.8325 8.10375 9.89 7.82125C8.39 7.60313 6.99563 8.61 6.74125 10.1356C6.71438 10.2944 6.7125 10.4575 6.69688 10.6488C6.9425 10.6156 7.165 10.585 7.41688 10.5513C7.0225 11.3138 6.64188 12.05 6.25563 12.7963C5.66375 12.1863 5.08063 11.5856 4.51063 10.9981C4.65375 10.9744 4.84375 10.9469 5.03188 10.9075C5.0675 10.9 5.12 10.8425 5.11875 10.8094C5.10813 10.41 5.13563 10.015 5.21375 9.62313C5.21625 9.61125 5.21063 9.5975 5.20688 9.57438C4.82563 9.50938 4.47188 9.37188 4.15125 9.15063C3.3675 8.60813 2.9575 7.59875 3.15 6.67875C3.35938 5.67625 4.11563 4.92688 5.09313 4.74188C5.72688 4.6225 6.31438 4.73625 6.86 5.07125C6.95625 5.13063 7.015 5.13938 7.07813 5.03625C7.115 4.97563 7.17063 4.92688 7.23438 4.85313C7.31375 5.17313 7.38813 5.4725 7.46188 5.77188C7.48688 5.8725 7.50625 5.975 7.53563 6.07438C7.5675 6.18188 7.535 6.23 7.42125 6.2225C7.0925 6.2 6.76313 6.18 6.43438 6.15813C6.35313 6.1525 6.2725 6.14375 6.16813 6.13375C6.24938 6.03125 6.32313 5.93938 6.40375 5.83875C6.22625 5.70375 6.03063 5.63625 5.82688 5.60313C4.84188 5.44188 3.97375 6.19875 3.99375 7.19563C4.00875 7.96063 4.65375 8.64438 5.41563 8.70938C5.51438 8.7175 5.54875 8.6675 5.58688 8.59375C6.12688 7.5575 6.94 6.825 8.04625 6.44375C10.6056 5.56125 13.2775 7.1425 13.7706 9.73063C14.0138 11.005 13.7369 12.1688 12.9638 13.2119C12.9425 13.2406 12.9231 13.2713 12.9044 13.3019C12.9006 13.3075 12.9056 13.3188 12.9088 13.3425L12.9056 13.3431Z" fill="#475C6F" fill-opacity="0.5"/>
</g>
</g>
</g>
</g>
</g>
</g>
<defs>
<filter id="filter0_d_0_1" x="-174" y="-38" width="240" height="96" filterUnits="userSpaceOnUse" color-interpolation-filters="sRGB">
<feFlood flood-opacity="0" result="BackgroundImageFix"/>
<feColorMatrix in="SourceAlpha" type="matrix" values="0 0 0 0 0 0 0 0 0 0 0 0 0 0 0 0 0 0 127 0" result="hardAlpha"/>
<feOffset dy="2"/>
<feGaussianBlur stdDeviation="2"/>
<feComposite in2="hardAlpha" operator="out"/>
<feColorMatrix type="matrix" values="0 0 0 0 0.521569 0 0 0 0 0.756863 0 0 0 0 0.913725 0 0 0 0.25 0"/>
<feBlend mode="normal" in2="BackgroundImageFix" result="effect1_dropShadow_0_1"/>
<feBlend mode="normal" in="SourceGraphic" in2="effect1_dropShadow_0_1" result="shape"/>
</filter>
</defs>
</svg>
