<svg width="16" height="16" viewBox="0 0 16 16" fill="none" xmlns="http://www.w3.org/2000/svg">
<path opacity="0.1" d="M12.6667 7.33333C12.6667 10.2789 10.2789 12.6667 7.33333 12.6667C4.38781 12.6667 2 10.2789 2 7.33333C2 4.38781 4.38781 2 7.33333 2C10.2789 2 12.6667 4.38781 12.6667 7.33333Z" fill="url(#paint0_linear_6_801)"/>
<path d="M11.3333 11.3333L14 14" stroke="url(#paint1_linear_6_801)" stroke-width="0.5" stroke-linecap="round" stroke-linejoin="round"/>
<path d="M12.6667 7.33333C12.6667 10.2789 10.2789 12.6667 7.33333 12.6667C4.38781 12.6667 2 10.2789 2 7.33333C2 4.38781 4.38781 2 7.33333 2C10.2789 2 12.6667 4.38781 12.6667 7.33333Z" stroke="url(#paint2_linear_6_801)" stroke-width="0.5"/>
<defs>
<linearGradient id="paint0_linear_6_801" x1="7.33333" y1="2" x2="7.33333" y2="12.6667" gradientUnits="userSpaceOnUse">
<stop stop-color="#37BBFE"/>
<stop offset="1" stop-color="#007DBB"/>
</linearGradient>
<linearGradient id="paint1_linear_6_801" x1="12.6667" y1="11.3333" x2="12.6667" y2="14" gradientUnits="userSpaceOnUse">
<stop stop-opacity="0.25"/>
<stop offset="1" stop-color="#000609"/>
</linearGradient>
<linearGradient id="paint2_linear_6_801" x1="7.33333" y1="2" x2="7.33333" y2="12.6667" gradientUnits="userSpaceOnUse">
<stop stop-opacity="0.25"/>
<stop offset="1" stop-color="#000609"/>
</linearGradient>
</defs>
</svg>
