<svg aria-hidden="true" style="position: absolute; width: 0; height: 0; overflow: hidden;" version="1.1" xmlns="http://www.w3.org/2000/svg" xmlns:xlink="http://www.w3.org/1999/xlink">
<defs>
<symbol id="icon-github" viewBox="0 0 31 32">
<path fill="#475c6f" style="fill: var(--color1, #475c6f)" opacity="0.5" d="M15.515 3.103c-0.075-0.002-0.162-0.002-0.251-0.002-7.123 0-12.897 5.774-12.897 12.897 0 5.758 3.774 10.635 8.983 12.292l0.091 0.025c0.679 0 0.873-0.291 0.873-0.679v-2.23c-3.588 0.776-4.364-1.648-4.364-1.648-0.291-0.776-0.776-1.455-1.455-1.939-1.164-0.776 0-0.776 0-0.776 0.899 0.055 1.673 0.54 2.127 1.25l0.007 0.011c0.495 0.848 1.4 1.409 2.437 1.409 0.493 0 0.956-0.127 1.359-0.35l-0.014 0.007c0-0.582 0.291-1.261 0.776-1.648-2.715-0.291-5.818-1.455-5.818-6.4 0-1.261 0.388-2.521 1.261-3.491-0.388-1.067-0.291-2.327 0.194-3.394 0 0 0.97-0.388 3.491 1.261 2.133-0.582 4.364-0.582 6.497 0 2.327-1.649 3.491-1.261 3.491-1.261 0.485 1.067 0.485 2.327 0 3.394 0.97 0.97 1.455 2.23 1.358 3.491 0 4.945-2.909 6.012-5.818 6.4 0.543 0.558 0.877 1.321 0.877 2.162 0 0.058-0.002 0.116-0.005 0.173l0-0.008v3.588c0 0.388 0.194 0.776 0.776 0.679 5.298-1.684 9.070-6.559 9.070-12.316 0-7.123-5.774-12.897-12.897-12.897-0.052 0-0.104 0-0.156 0.001l0.008-0z"></path>
</symbol>
<symbol id="icon-linkedin" viewBox="0 0 31 32">
<path fill="#475c6f" style="fill: var(--color1, #475c6f)" opacity="0.5" d="M15.515 28.897c7.123 0 12.897-5.774 12.897-12.897s-5.774-12.897-12.897-12.897v0c-7.123 0-12.897 5.774-12.897 12.897s5.774 12.897 12.897 12.897v0z"></path>
<path fill="#f8fafb" style="fill: var(--color2, #f8fafb)" d="M12.121 9.697c0 0.873-0.582 1.455-1.552 1.455s-1.552-0.485-1.552-1.455c0-0.776 0.582-1.455 1.552-1.455s1.552 0.679 1.552 1.455zM9.212 21.721v-9.406h2.909v9.406h-2.909zM14.351 15.321v-2.909h2.521l0.097 1.164c0.485-0.582 1.358-1.455 2.909-1.455 1.939 0 3.394 1.261 3.394 3.976v5.624h-2.909v-5.236c0-1.164-0.388-1.939-1.455-1.939-0.873 0-1.358 0.485-1.455 0.97l-0.194 0.776v5.43h-2.909v-6.4z"></path>
</symbol>
<symbol id="icon-telegram" viewBox="0 0 31 32">
<path fill="#475c6f" style="fill: var(--color1, #475c6f)" opacity="0.5" d="M15.515 29.576c7.498 0 13.576-6.078 13.576-13.576s-6.078-13.576-13.576-13.576v0c-7.498 0-13.576 6.078-13.576 13.576s6.078 13.576 13.576 13.576v0z"></path>
<path fill="#f8fafb" style="fill: var(--color2, #f8fafb)" d="M22.303 10.376c0.097-0.776-0.679-1.358-1.358-1.067l-13.77 6.012c-0.485 0.291-0.485 0.97 0 1.164l2.909 0.97c0.485 0.097 1.067 0 1.552-0.291l6.497-4.461c0.194-0.097 0.388 0.194 0.194 0.291l-4.655 4.848c-0.187 0.177-0.303 0.427-0.303 0.705 0 0.362 0.198 0.678 0.493 0.844l0.005 0.003 5.236 3.297c0.582 0.291 1.261 0 1.358-0.776l1.842-11.539z"></path>
</symbol>
<symbol id="icon-avatar" viewBox="0 0 32 32">
<path fill="rgba(71, 92, 111, 0.5)" style="fill: var(--color3, rgba(71, 92, 111, 0.5))" d="M22.8 20.6l-0.6-0.2c-1-0.3-1.8-0.5-2-1.8 3-3 2.9-5.7 2.8-8.5v-1.1c-0.055-3.843-3.157-6.945-6.995-7l-0.005-0c-3.843 0.055-6.945 3.157-7 6.995l-0 0.005v1.1c0 2.9-0.1 5.5 2.7 8.5 0 1.3-0.8 1.5-1.9 1.8l-0.6 0.2c-3.6 1.1-7.2 4.4-7.2 8.4 0 0.552 0.448 1 1 1s1-0.448 1-1v0c0-3 3-5.6 5.8-6.5l0.5-0.2c1.378-0.211 2.514-1.083 3.089-2.276l0.011-0.024c0.738 0.403 1.616 0.64 2.55 0.64s1.812-0.237 2.578-0.654l-0.028 0.014c0.579 1.282 1.763 2.201 3.178 2.398l0.021 0.002 0.5 0.1c2.8 0.9 5.8 3.5 5.8 6.5 0 0.552 0.448 1 1 1s1-0.448 1-1v0c0-4-3.6-7.3-7.2-8.4zM13.5 17.6c-2.6-2.6-2.6-4.7-2.5-7.4v-1.2c0-2.761 2.239-5 5-5s5 2.239 5 5v0 1.2c0 2.7 0 4.8-2.5 7.3-0.647 0.625-1.528 1.010-2.5 1.010s-1.853-0.385-2.501-1.011l0.001 0.001z"></path>
</symbol>
<symbol id="icon-career" viewBox="0 0 32 32">
<path fill="#475c6f" style="fill: var(--color1, #475c6f)" d="M31.5 25.5c-1.3-1-2.8-2.6-3-3.3-0.3-0.6-0.3-3.1-0.2-5v-0.8l-0.4-2.7 1.6 3c0.173 0.358 0.533 0.601 0.95 0.601 0.581 0 1.051-0.471 1.051-1.051 0-0.163-0.037-0.318-0.104-0.456l0.003 0.006c-0.5-1-2.9-5.8-5.4-6.8l-1-0.3-0.6 0.8-0.8-0.6-1 0.7c-0.5 0.4-0.8 0.8-1 1.2-0.5 0.6-0.7 0.9-1.4 1-1 0.3-2.1-0.5-2.1-0.5-0.169-0.136-0.387-0.218-0.624-0.218-0.376 0-0.703 0.207-0.874 0.513l-0.003 0.005v0.1l-2.9-1.4v-1.9h0.4c0.6 0 1.2-0.4 1.2-1s-0.6-1-1.2-1h-13c-0.6 0-1.1 0.4-1.1 1s0.5 1 1.1 1h0.4v10h5.5v8.8h-2v1.4h5v-1.4h-2v-8.9h5.6v-7.6l2.7 1.3c0 0.4 0.1 0.8 0.4 1 0.1 0 1.4 1 3 1 0.917-0.031 1.749-0.365 2.407-0.906l-0.007 0.006 0.7 4.3 0.3 0.7c-1 1.8-3 5.5-3 9.2 0 0.7 0.7 1.3 1.4 1.3s1.3-0.6 1.3-1.3c0-3.1 1.7-6.5 2.6-8h0.1c0 1.4 0.1 3 0.4 3.9 0.7 1.6 3.3 3.8 3.9 4.3 0.218 0.17 0.495 0.273 0.797 0.273 0.403 0 0.763-0.183 1.001-0.471l0.002-0.002c0.5-0.5 0.4-1.4-0.2-1.8zM13.4 18h-11.5v-9.6h11.5v1.8l-1.8-0.9v0.3l1.8 1v7.4zM25.3 14.7l-0.8-0.8-0.1-4.3 1.3 4.1-0.4 1z"></path>
<path fill="#475c6f" style="fill: var(--color1, #475c6f)" d="M23.8 8.7c0.155 0.032 0.334 0.050 0.517 0.050 1.491 0 2.7-1.209 2.7-2.7s-1.209-2.7-2.7-2.7c-0.183 0-0.362 0.018-0.534 0.053l0.017-0.003c-1.252 0.251-2.183 1.342-2.183 2.65s0.93 2.399 2.166 2.647l0.017 0.003zM10.4 10.5c-0.012-0.001-0.027-0.001-0.041-0.001-0.387 0-0.7 0.313-0.7 0.7 0 0.254 0.136 0.477 0.338 0.599l0.003 0.002-0.8 1.6h-0.2l-1.3-1.7v-0.3c0-0.387-0.313-0.7-0.7-0.7s-0.7 0.313-0.7 0.7v0l0.1 0.4-1.5 1.6h-0.3c-0.357 0.035-0.634 0.334-0.634 0.697 0 0.387 0.313 0.7 0.7 0.7s0.7-0.313 0.7-0.7c0-0.108-0.024-0.21-0.068-0.301l0.002 0.004 1.4-1.8h0.5l1.3 1.6v0.4c0 0.387 0.313 0.7 0.7 0.7s0.7-0.313 0.7-0.7v0c0-0.2 0-0.4-0.2-0.5l0.7-1.6c0.414 0 0.75-0.336 0.75-0.75s-0.336-0.75-0.75-0.75v0z"></path>
</symbol>
<symbol id="icon-projects" viewBox="0 0 32 32">
<path fill="#475c6f" style="fill: var(--color1, #475c6f)" d="M9 16.6c-0.4 0-0.8 0.2-1 0.5l-0.6 0.9v-1.2l1.3-0.5c0.4-0.1 0.7-0.5 0.7-1-0.024-0.343-0.217-0.635-0.495-0.797l-0.005-0.003c-0.3-0.1-0.7-0.2-1 0h-0.2l0.2-0.3c0.2-0.3 0.3-0.7 0.3-1 0-0.6-0.6-1-1.2-1-0.5 0-0.9 0.2-1 0.5l-1.1 1.9-0.9 3.7v4.9l0.3 1.4h-1.1v2.6h6.2v-2.6h-1.2v-2.4l0.7-1 1.1-2.7c0.2-0.3 0.2-0.6 0.2-0.9 0-0.6-0.5-1-1.2-1zM8.1 15h0.3l0.2 0.3-0.2 0.2-1 0.4v-0.7l0.7-0.2zM8.6 25.3v1h-4.6v-1h4.6zM9.3 18.2l-1.1 2.5-0.9 1.1v2.7h-2.1l-0.3-1.5v-4.7l0.8-3.6 1-1.7c0-0.2 0.1-0.2 0.3-0.2s0.3 0.1 0.3 0.3l-0.1 0.6-0.7 1.2v3.1l0.8 1.4 1.4-2c0-0.2 0.2-0.2 0.3-0.2 0.2 0 0.4 0.1 0.4 0.3l-0.1 0.7zM27.7 24.6l0.3-1.4v-4.8l-0.9-3.8-1-1.9c-0.2-0.3-0.6-0.6-1-0.6-0.7 0-1.3 0.5-1.3 1 0 0.4 0.1 0.8 0.3 1l0.2 0.3h-0.3c-0.3-0.1-0.7 0-1 0.1-0.301 0.176-0.501 0.498-0.501 0.866 0 0.012 0 0.024 0.001 0.035l-0-0.002c0 0.4 0.3 0.8 0.7 1l1.4 0.4v1.1l-0.7-0.8c-0.2-0.3-0.6-0.5-1-0.5-0.7 0-1.2 0.4-1.2 1 0 0.3 0 0.6 0.2 1l1 2.5 0.8 1v2.5h-1.2v2.6h6.2v-2.6h-1.1zM23.7 15.6c-0.2 0-0.3-0.1-0.3-0.2s0-0.2 0.2-0.3h0.3l0.8 0.2v0.7l-1-0.4zM23.8 20.8l-1-2.5-0.2-0.7c0-0.2 0.2-0.3 0.4-0.3l0.3 0.1 1.4 2.1 0.8-1.4v-3.1l-0.7-1.2-0.1-0.6c0-0.2 0.1-0.3 0.3-0.3s0.3 0 0.3 0.2l1 1.7 0.8 3.6v4.7l-0.3 1.5h-2.1v-2.6l-0.9-1.1zM28 26.5h-4.6v-1.1h4.6v1zM21.2 11.4h1v-2.2h-1c-0.1-0.5-0.3-1-0.6-1.4l0.7-0.6-1.8-1.6-0.7 0.6-1.6-0.5v-0.9h-2.4v0.9c-0.6 0-1.1 0.3-1.6 0.5l-0.7-0.6-1.8 1.6 0.7 0.6c-0.3 0.4-0.5 1-0.6 1.4h-1v2.2h1c0.1 0.5 0.3 1 0.6 1.4l-0.7 0.6 1.8 1.6 0.6-0.6v0.1c0 0.4 0.2 0.6 0.5 0.8v0.3c0 0.5 0.4 1 1 1h2.9c0.5 0 1-0.5 1-1v-0.3c0.2-0.2 0.4-0.4 0.4-0.8l0.6 0.5 1.8-1.6-0.7-0.6c0.3-0.4 0.5-0.9 0.6-1.4zM17.5 15.8h-3l-0.1-0.2s0-0.2 0.2-0.2h2.9l0.2 0.2-0.2 0.2zM17.9 14.8h-3.9l-0.2-0.3 0.2-0.2h4l0.2 0.2-0.2 0.2zM16.4 11.3c0.5-0.1 0.8-0.5 0.8-1 0-0.6-0.5-1-1.2-1s-1.2 0.4-1.2 1c0 0.5 0.3 0.9 0.8 1v2.3h-0.8v-1h-0.2c-0.89-0.396-1.5-1.272-1.5-2.291 0-0.003 0-0.006 0-0.009v0c0-1.4 1.3-2.6 3-2.6 1.5 0 2.8 1.2 2.8 2.6 0 1-0.6 1.8-1.4 2.2l-0.3 0.1v1h-0.8v-2.3zM16 10.7c-0.2 0-0.4-0.2-0.4-0.4s0.2-0.4 0.4-0.4 0.4 0.2 0.4 0.4-0.2 0.4-0.4 0.4zM20.5 11c-0.1 0.6-0.4 1.1-0.8 1.6l-0.2 0.3 0.6 0.5-0.6 0.5-0.6-0.5-0.3 0.2-0.2 0.1c-0.045-0.007-0.097-0.011-0.15-0.011s-0.105 0.004-0.156 0.012l0.006-0.001v-0.7c1-0.7 1.6-1.7 1.6-2.8 0-1.7-1.6-3.2-3.7-3.2-2 0-3.7 1.5-3.7 3.3 0 1.1 0.6 2.1 1.6 2.8v0.5c-0.112 0.019-0.213 0.054-0.305 0.103l0.005-0.003-0.2-0.1-0.3-0.2-0.6 0.5-0.6-0.5 0.6-0.5-0.2-0.3c-0.4-0.5-0.7-1-0.8-1.6v-0.3h-0.9v-0.8h0.9v-0.3c0.1-0.6 0.4-1.1 0.8-1.6l0.2-0.3-0.6-0.5 0.6-0.5 0.6 0.5 0.3-0.2c0.5-0.3 1.2-0.6 1.8-0.7h0.4v-0.8h0.8v0.8h0.4c0.6 0.1 1.3 0.4 1.8 0.7l0.3 0.2 0.6-0.5 0.6 0.5-0.6 0.5 0.2 0.3c0.4 0.5 0.7 1 0.8 1.6v0.3h0.9v0.8h-0.9v0.3zM16.4 17.3h-0.8v0.7h0.8v-0.7zM16.4 18.8h-0.8v0.7h0.8v-0.7zM16.4 20.2h-0.8v0.8h0.8v-0.8zM16.4 21.7h-0.8v0.7h0.8v-0.7z"></path>
</symbol>
<symbol id="icon-documents" viewBox="0 0 32 32">
<path fill="none" stroke="#475c6f" style="stroke: var(--color1, #475c6f)" stroke-linejoin="round" stroke-linecap="round" stroke-miterlimit="4" stroke-width="2" d="M5.2 28h20.5c1.4 0 2.6-1.2 2.6-2.7v-14.6c0-1.5-1.3-2.7-2.6-2.7h-11.5l-2.2-3.4c-0.2-0.4-0.6-0.6-1-0.6h-5.9c-1.393 0.054-2.502 1.197-2.502 2.598 0 0.036 0.001 0.071 0.002 0.107l-0-0.005v18.6c0 1.5 1.1 2.7 2.5 2.7z"></path>
</symbol>
<symbol id="icon-language" viewBox="0 0 32 32">
<path fill="none" stroke="#475c6f" style="stroke: var(--color1, #475c6f)" stroke-linejoin="miter" stroke-linecap="square" stroke-miterlimit="4" stroke-width="1" d="M16 25.6c5.302 0 9.6-4.298 9.6-9.6s-4.298-9.6-9.6-9.6v0c-5.302 0-9.6 4.298-9.6 9.6s4.298 9.6 9.6 9.6v0z"></path>
<path fill="none" stroke="#475c6f" style="stroke: var(--color1, #475c6f)" stroke-linejoin="miter" stroke-linecap="round" stroke-miterlimit="4" stroke-width="1" d="M16 25.6c2.47-2.208 4.017-5.403 4.017-8.96 0-0.225-0.006-0.449-0.018-0.671l0.001 0.031c0-4-1.3-7.3-4-9.6-2.47 2.208-4.017 5.403-4.017 8.96 0 0.225 0.006 0.449 0.018 0.671l-0.001-0.031c0 4 1.3 7.3 4 9.6zM7.2 13.6h17.6M7.2 19.2h17.6"></path>
</symbol>
<symbol id="icon-mail" viewBox="0 0 32 32">
<path fill="#475c6f" style="fill: var(--color1, #475c6f)" opacity="0.5" d="M9.9 24.4v-8.8l-5.2-4v11c0 1.2 0.7 1.8 2 1.8z"></path>
<path fill="#475c6f" style="fill: var(--color1, #475c6f)" opacity="0.5" d="M9.6 15.5l6.4 4.8 6.4-4.8v-6.1l-6.4 4.8-6.4-4.8z"></path>
<path fill="#475c6f" style="fill: var(--color1, #475c6f)" opacity="0.5" d="M22.1 24.4v-8.8l5.1-4v11c0 1.2-0.6 1.8-1.8 1.8zM4.8 11.8l5 3.9v-6.1l-1.8-1.6c-1.7-1.3-3.3 0-3.3 1.7z"></path>
<path fill="#475c6f" style="fill: var(--color1, #475c6f)" opacity="0.5" d="M27.3 11.8l-5.3 3.9v-6.1l2-1.6c1.7-1.3 3.3 0 3.3 1.7z"></path>
</symbol>
<symbol id="icon-education" viewBox="0 0 32 32">
<path fill="#475c6f" style="fill: var(--color1, #475c6f)" d="M28 11.2l-11.7-4.7c-0.118-0.053-0.255-0.083-0.4-0.083s-0.282 0.031-0.406 0.086l0.006-0.003-11.4 4.7c-0.5 0.3-0.9 0.9-0.9 1.5 0 0.7 0.4 1.3 0.9 1.5l1 0.5v2.6l-1.2 3 1.2 0.7 0.7-1.7 0.7 1.7 1.1-0.7-1.2-3v-2l2 0.7v6.3c0 2.3 5.8 2.5 7.6 2.5s7.7-0.2 7.7-2.5v-6.3l4.2-1.8c0.5-0.2 0.9-0.8 0.9-1.5 0-0.6-0.4-1.2-0.9-1.5zM16 23.2c-3.3 0-5.4-0.5-6.2-1 0.8-0.3 3-0.9 6.2-0.9 3.3 0 5.4 0.6 6.2 1-0.8 0.4-3 1-6.2 1zM22.4 20.7c-1.8-0.9-5.1-1-6.4-1s-4.6 0.1-6.4 1v-7.2c0.4-0.4 2.7-1.2 6.4-1.2s6 0.8 6.4 1.2v7.2zM23.7 14.3v-1c0-2.4-5.9-2.5-7.7-2.5s-7.7 0.1-7.7 2.5v1l-3.8-1.6 11.5-4.7 11.5 4.7-3.8 1.6z"></path>
</symbol>
<symbol id="icon-phone" viewBox="0 0 32 32">
<path fill="#475c6f" style="fill: var(--color1, #475c6f)" opacity="0.5" d="M18.7 6h-7.4c-1.3 0-2.3 1-2.3 2v16c0 1 1 2 2.3 2h7.4c1.3 0 2.3-1 2.3-2v-16c0-1-1-2-2.3-2zM15 24.8c-0.5 0-1-0.4-1-0.9 0-0.4 0.5-0.8 1-0.8s1 0.4 1 0.8c0 0.5-0.5 0.9-1 0.9zM19.6 8.6v13.4h-9.2v-13.4h9.2z"></path>
</symbol>
<symbol id="icon-theme" viewBox="0 0 32 32">
<path fill="#475c6f" style="fill: var(--color1, #475c6f)" d="M28 14.2l-5-2 0.8-5.3-5 1.8-2.8-4.7-2.8 4.7-5-1.8 0.8 5.4-5 2 4 3.5-2.6 4.8h5.4l1 5.4 4.2-3.5 4.2 3.5 1-5.4h5.4l-2.7-4.8 4.1-3.6zM16.3 23.8c-4 0-7.3-3.3-7.3-7.4 0-4 3.3-7.4 7.3-7.4 1.9 0 3.6 0.7 4.9 2-0.5-0.3-1-0.4-1.4-0.4h-0.6c-3.203 0-5.8 2.597-5.8 5.8v0c0 3.2 2.6 5.8 5.8 5.8 0.7 0 1.4-0.1 2-0.4-1.3 1.2-3 2-5 2z"></path>
</symbol>
<symbol id="icon-experience" viewBox="0 0 32 32">
<path fill="#475c6f" style="fill: var(--color1, #475c6f)" d="M12.5 10.2h7c0.030 0.005 0.065 0.008 0.1 0.008 0.331 0 0.6-0.269 0.6-0.6 0-0.003-0-0.006-0-0.009v0-1.3c-0.055-1.061-0.928-1.9-1.997-1.9-0.001 0-0.002 0-0.003 0h-4.4c-1.105 0-2 0.895-2 2v0 1.2c-0 0.002-0 0.005-0 0.008 0 0.331 0.269 0.6 0.6 0.6 0.035 0 0.070-0.003 0.104-0.009l-0.004 0.001zM23 8h-0.6c-0.166 0-0.3 0.134-0.3 0.3v0 1.3c0 1.436-1.164 2.6-2.6 2.6v0h-7c-1.436 0-2.6-1.164-2.6-2.6v0-1.3c0-0.166-0.134-0.3-0.3-0.3v0h-0.6c-1.105 0-2 0.895-2 2v0 13.7c0.055 1.061 0.928 1.9 1.998 1.9 0.001 0 0.002 0 0.003 0h14c1.105 0 2-0.895 2-2v0-13.6c0-1.105-0.895-2-2-2v0zM12.5 21.8c0 0.003 0 0.005 0 0.008 0 0.331-0.269 0.6-0.6 0.6-0.035 0-0.070-0.003-0.104-0.009l0.004 0.001h-0.6c-0.331 0-0.6-0.269-0.6-0.6v0-0.8c0-0.331 0.269-0.6 0.6-0.6h0.6c0.030-0.005 0.065-0.008 0.1-0.008 0.331 0 0.6 0.269 0.6 0.6 0 0.003-0 0.006-0 0.009v-0 0.7zM12.5 18.6c0 0.003 0 0.005 0 0.008 0 0.331-0.269 0.6-0.6 0.6-0.035 0-0.070-0.003-0.104-0.009l0.004 0.001h-0.6c-0.331 0-0.6-0.269-0.6-0.6v0-0.7c0-0.331 0.269-0.6 0.6-0.6h0.6c0.030-0.005 0.065-0.008 0.1-0.008 0.331 0 0.6 0.269 0.6 0.6 0 0.003-0 0.006-0 0.009v-0 0.7zM12.5 15.4c0 0.002 0 0.005 0 0.008 0 0.331-0.269 0.6-0.6 0.6-0.035 0-0.070-0.003-0.104-0.009l0.004 0.001h-0.6c-0.331 0-0.6-0.269-0.6-0.6v0-0.7c0-0.331 0.269-0.6 0.6-0.6v0h0.6c0.030-0.005 0.065-0.008 0.1-0.008 0.331 0 0.6 0.269 0.6 0.6 0 0.003-0 0.006-0 0.009v-0 0.7zM21.5 21.8c0 0.003 0 0.005 0 0.008 0 0.331-0.269 0.6-0.6 0.6-0.035 0-0.070-0.003-0.104-0.009l0.004 0.001h-6.4c-0.331 0-0.6-0.269-0.6-0.6v0-0.8c0-0.331 0.269-0.6 0.6-0.6h6.4c0.331 0 0.6 0.269 0.6 0.6v0 0.7zM21.5 18.6c0 0.003 0 0.005 0 0.008 0 0.331-0.269 0.6-0.6 0.6-0.035 0-0.070-0.003-0.104-0.009l0.004 0.001h-6.4c-0.331 0-0.6-0.269-0.6-0.6v0-0.7c0-0.331 0.269-0.6 0.6-0.6h6.4c0.331 0 0.6 0.269 0.6 0.6v0 0.7zM21.5 15.4c0 0.002 0 0.005 0 0.008 0 0.331-0.269 0.6-0.6 0.6-0.035 0-0.070-0.003-0.104-0.009l0.004 0.001h-6.4c-0.331 0-0.6-0.269-0.6-0.6v0-0.7c0-0.331 0.269-0.6 0.6-0.6v0h6.4c0.331 0 0.6 0.269 0.6 0.6v0 0.7z"></path>
</symbol>
</defs>
</svg>
