<svg width="20" height="20" viewBox="0 0 20 20" fill="none" xmlns="http://www.w3.org/2000/svg">
<path d="M10 18.75C14.8325 18.75 18.75 14.8325 18.75 10C18.75 5.16751 14.8325 1.25 10 1.25C5.16751 1.25 1.25 5.16751 1.25 10C1.25 14.8325 5.16751 18.75 10 18.75Z" fill="#475C6F" fill-opacity="0.5"/>
<path d="M14.3666 6.3805C14.4445 5.87707 13.9659 5.47972 13.5182 5.67625L4.60301 9.5905C4.28202 9.73144 4.3055 10.2177 4.63842 10.3237L6.47694 10.9092C6.82787 11.0209 7.20781 10.9631 7.51425 10.7514L11.6594 7.88769C11.7844 7.80131 11.9206 7.97906 11.8138 8.08912L8.83006 11.1654C8.54062 11.4638 8.59806 11.9695 8.94625 12.1878L12.2869 14.2827C12.6616 14.5176 13.1436 14.2816 13.2136 13.8288L14.3666 6.3805Z" fill="#F8FAFB"/>
</svg>
