<svg xmlns="http://www.w3.org/2000/svg" width="32" height="32" viewBox="0 0 32 32" fill="none">
  <path d="M27.9984 14.2243L22.9633 12.29L23.8314 6.89442L18.7495 8.69923L15.9992 4L13.2489 8.69923L8.167 6.89442L9.03509 12.29L4 14.2243L8.07987 17.7913L5.44736 22.5602L10.8302 22.629L11.8322 28L16 24.5395L20.1678 28L21.1698 22.629L26.5526 22.5602L23.9201 17.7913L28 14.2243H27.9984ZM16.2824 23.7718C12.267 23.7718 9.0117 20.4662 9.0117 16.3887C9.0117 12.3113 12.267 9.00563 16.2824 9.00563C18.1605 9.00563 19.8725 9.72903 21.1626 10.9161C20.7188 10.7408 20.2493 10.6179 19.762 10.5679C19.5692 10.5483 19.3699 10.5679 19.1722 10.5679C16.0024 10.5679 13.4449 13.165 13.4449 16.3838C13.4449 19.6027 16.0024 22.1997 19.1722 22.1997C19.8983 22.1997 20.5922 22.053 21.2303 21.7966C19.9322 23.0214 18.1936 23.7718 16.2824 23.7718Z" fill="#475C6F"/>
</svg>