<svg width="20" height="20" viewBox="0 0 20 20" fill="none" xmlns="http://www.w3.org/2000/svg">
<path d="M0.9375 10.3125V17.0625C0.9375 18.1671 1.83293 19.0625 2.9375 19.0625H9.6875H16.4375C17.5421 19.0625 18.4375 18.1671 18.4375 17.0625V10.3125V3.5625C18.4375 2.45793 17.5421 1.5625 16.4375 1.5625H9.6875H2.9375C1.83293 1.5625 0.9375 2.45793 0.9375 3.5625V10.3125Z" fill="#475C6F" fill-opacity="0.5"/>
<path d="M4.18239 9.74552C4.17933 10.1404 4.49861 10.4622 4.89353 10.4622H5.31573C5.94472 10.4622 6.45462 10.9721 6.45462 11.6011V13.6983V16.1289C6.45462 16.5738 6.81528 16.9344 7.26017 16.9344C7.70507 16.9344 8.06573 16.5738 8.06573 16.1289V13.6983V11.6011C8.06573 10.9721 8.57563 10.4622 9.20462 10.4622H9.64073C10.0289 10.4622 10.3435 10.1475 10.3435 9.75941C10.3435 9.59605 10.342 9.44395 10.3395 9.32188C10.3356 9.1324 10.2288 9.03172 10.0393 9.02948C9.54869 9.02369 8.47754 9.02127 7.24906 9.0233L4.90466 9.02969C4.50872 9.03077 4.18702 9.3496 4.18239 9.74552Z" fill="#F8FAFB"/>
<path d="M14.4333 9.01132C14.8777 9.12244 15.2166 9.31966 15.5277 9.64188C15.6888 9.8141 15.9277 10.128 15.9472 10.203C15.9527 10.2252 15.1916 10.7363 14.7305 11.0224C14.7138 11.0335 14.6472 10.9613 14.5722 10.8502C14.3472 10.5224 14.111 10.3808 13.7499 10.3558C13.2194 10.3197 12.8777 10.5974 12.8805 11.0613C12.8805 11.1974 12.8999 11.278 12.9555 11.3891C13.0722 11.6308 13.2888 11.7752 13.9694 12.0697C15.2222 12.6085 15.7583 12.9641 16.0916 13.4697C16.4638 14.0335 16.5472 14.9335 16.2944 15.603C16.0166 16.3308 15.3277 16.8252 14.3583 16.9891C14.0583 17.0419 13.3472 17.0335 13.0249 16.9752C12.3222 16.8502 11.6555 16.503 11.2444 16.0474C11.0833 15.8697 10.7694 15.4058 10.7888 15.3724C10.7972 15.3613 10.8694 15.3169 10.9499 15.2697C11.0277 15.2252 11.3222 15.0558 11.5999 14.8947L11.9401 14.6973C12.0317 14.6442 12.1488 14.6709 12.2083 14.7585C12.3555 14.9835 12.6777 15.2919 12.8722 15.3947C13.4305 15.6891 14.1972 15.6474 14.5749 15.3085C14.736 15.1613 14.8027 15.0085 14.8027 14.7835C14.8027 14.5808 14.7777 14.4919 14.6722 14.3391C14.536 14.1447 14.2583 13.9808 13.4694 13.6391C12.5666 13.2502 12.1777 13.0085 11.8222 12.6252C11.6166 12.403 11.4222 12.0474 11.3416 11.7502C11.2749 11.503 11.2583 10.8835 11.311 10.6335C11.4972 9.76132 12.1555 9.15299 13.1055 8.97243C13.4138 8.9141 14.1305 8.93632 14.4333 9.01132Z" fill="#F8FAFB"/>
</svg>
