<svg width="20" height="20" viewBox="0 0 20 20" fill="none" xmlns="http://www.w3.org/2000/svg">
<rect width="20" height="20" fill="#2C3E50"/>
<g id="Frame 33">
<g id="Main ">
<rect x="-204" y="-460" width="1280" height="860" rx="20" fill="#F8FAFB"/>
<g id="Frame 21">
<g id="Social media" filter="url(#filter0_d_0_1)">
<rect x="-120" y="-32" width="232" height="56" rx="4" fill="#F8FAFB" fill-opacity="0.866667" shape-rendering="crispEdges"/>
<g id="Frame 11" filter="url(#filter1_d_0_1)">
</g>
<g id="Frame 8">
<g id="viber-color_svgrepo.com">
<g id="Icons">
<g id="Color-">
<path id="Viber" fill-rule="evenodd" clip-rule="evenodd" d="M10.25 1C15.0825 1 19 4.91751 19 9.75C19 14.5825 15.0825 18.5 10.25 18.5C5.41751 18.5 1.5 14.5825 1.5 9.75C1.5 4.91751 5.41751 1 10.25 1ZM10.7741 4.56422C11.369 4.63847 11.8498 4.78179 12.3773 5.0391C12.8962 5.29297 13.2282 5.533 13.6676 5.9699C14.0792 6.38263 14.3075 6.69523 14.5496 7.18048C14.8869 7.85744 15.0789 8.66218 15.1117 9.54809C15.1238 9.85028 15.1152 9.91765 15.046 10.004C14.9145 10.1715 14.6257 10.1438 14.5271 9.95563C14.496 9.89346 14.4873 9.83995 14.477 9.59816C14.4597 9.22688 14.4338 8.98684 14.3819 8.70017C14.1778 7.57596 13.6381 6.67795 12.7768 6.0338C12.0591 5.49501 11.3171 5.23251 10.3451 5.17553C10.0165 5.15654 9.95944 5.14447 9.88507 5.08747C9.74668 4.97867 9.7398 4.7231 9.87296 4.60394C9.95425 4.52967 10.0113 4.51931 10.2932 4.52794C10.4403 4.53312 10.6564 4.5504 10.7741 4.56422ZM6.82034 4.75073C6.88089 4.77144 6.97429 4.81979 7.02791 4.85433C7.3565 5.07193 8.27141 6.24103 8.57064 6.82474C8.74184 7.15803 8.79892 7.40498 8.74533 7.58803C8.68996 7.7849 8.59832 7.88852 8.18841 8.21836C8.02411 8.35132 7.87015 8.48776 7.84596 8.52403C7.78369 8.61384 7.73352 8.78997 7.73352 8.9143C7.73528 9.2027 7.92207 9.72596 8.16767 10.1283C8.35789 10.4409 8.69859 10.8415 9.03586 11.1489C9.43192 11.5116 9.78129 11.7585 10.1756 11.9537C10.6824 12.2058 10.992 12.2697 11.2186 12.1644C11.2756 12.1385 11.3361 12.1039 11.3552 12.0884C11.3725 12.0728 11.5057 11.9105 11.6509 11.7309C11.9311 11.3786 11.9951 11.3216 12.1871 11.256C12.431 11.1731 12.68 11.1956 12.9308 11.3234C13.121 11.4218 13.5361 11.6791 13.8042 11.8656C14.157 12.1126 14.9111 12.7273 15.0132 12.85C15.193 13.071 15.2242 13.3542 15.1031 13.6668C14.9751 13.9966 14.477 14.6149 14.1293 14.8791C13.8146 15.1174 13.5915 15.2089 13.2974 15.2227C13.0553 15.2348 12.955 15.2141 12.6454 15.0863C10.2172 14.0864 8.27834 12.5944 6.73904 10.5445C5.93483 9.47383 5.32256 8.36344 4.904 7.21158C4.66015 6.53982 4.64806 6.24795 4.84866 5.90429C4.93516 5.75924 5.30354 5.40004 5.57161 5.19973C6.01785 4.86815 6.22365 4.74553 6.38796 4.711C6.50038 4.68682 6.6958 4.70582 6.82034 4.75073ZM10.8934 5.81621C11.9432 5.9699 12.7561 6.45692 13.2888 7.24784C13.588 7.69338 13.7748 8.21663 13.8388 8.77787C13.8613 8.98338 13.8613 9.35813 13.8371 9.4203C13.8146 9.479 13.7419 9.55845 13.6797 9.59124C13.6122 9.62579 13.4687 9.62235 13.3891 9.58089C13.2559 9.51355 13.2162 9.40648 13.2162 9.11636C13.2162 8.6691 13.1003 8.19763 12.8997 7.83152C12.6714 7.41361 12.3393 7.06824 11.9346 6.82819C11.5869 6.62096 11.0733 6.46728 10.6046 6.42929C10.4351 6.41546 10.3417 6.38092 10.2777 6.30666C10.1791 6.19441 10.1687 6.04245 10.2517 5.91639C10.3417 5.77651 10.48 5.75404 10.8934 5.81621ZM11.2618 7.12003C11.6025 7.19257 11.8637 7.32209 12.0868 7.53105C12.3739 7.80216 12.5313 8.13028 12.6004 8.60174C12.6471 8.90913 12.6281 9.03 12.5191 9.13016C12.4171 9.22341 12.2286 9.22686 12.1144 9.13879C12.0314 9.07662 12.0055 9.01101 11.9864 8.83315C11.964 8.59655 11.9225 8.43077 11.8516 8.27707C11.6994 7.95069 11.4313 7.78145 10.9781 7.72619C10.7654 7.70028 10.7014 7.67611 10.6322 7.59495C10.506 7.44471 10.5544 7.20121 10.7291 7.11141C10.7948 7.0786 10.8225 7.07514 10.9678 7.08378C11.0577 7.08896 11.1909 7.10448 11.2618 7.12003Z" fill="#475C6F" fill-opacity="0.5"/>
</g>
</g>
</g>
</g>
</g>
</g>
</g>
</g>
<defs>
<filter id="filter0_d_0_1" x="-124" y="-34" width="240" height="64" filterUnits="userSpaceOnUse" color-interpolation-filters="sRGB">
<feFlood flood-opacity="0" result="BackgroundImageFix"/>
<feColorMatrix in="SourceAlpha" type="matrix" values="0 0 0 0 0 0 0 0 0 0 0 0 0 0 0 0 0 0 127 0" result="hardAlpha"/>
<feOffset dy="2"/>
<feGaussianBlur stdDeviation="2"/>
<feComposite in2="hardAlpha" operator="out"/>
<feColorMatrix type="matrix" values="0 0 0 0 0.521569 0 0 0 0 0.756863 0 0 0 0 0.913725 0 0 0 0.25 0"/>
<feBlend mode="normal" in2="BackgroundImageFix" result="effect1_dropShadow_0_1"/>
<feBlend mode="normal" in="SourceGraphic" in2="effect1_dropShadow_0_1" result="shape"/>
</filter>
<filter id="filter1_d_0_1" x="-60.5" y="-28" width="113" height="32" filterUnits="userSpaceOnUse" color-interpolation-filters="sRGB">
<feFlood flood-opacity="0" result="BackgroundImageFix"/>
<feColorMatrix in="SourceAlpha" type="matrix" values="0 0 0 0 0 0 0 0 0 0 0 0 0 0 0 0 0 0 127 0" result="hardAlpha"/>
<feOffset dy="4"/>
<feGaussianBlur stdDeviation="2"/>
<feComposite in2="hardAlpha" operator="out"/>
<feColorMatrix type="matrix" values="0 0 0 0 0.521569 0 0 0 0 0.756863 0 0 0 0 0.913725 0 0 0 0.25 0"/>
<feBlend mode="normal" in2="BackgroundImageFix" result="effect1_dropShadow_0_1"/>
<feBlend mode="normal" in="SourceGraphic" in2="effect1_dropShadow_0_1" result="shape"/>
</filter>
</defs>
</svg>
