<svg width="20" height="20" viewBox="0 0 20 20" fill="none" xmlns="http://www.w3.org/2000/svg">
<g clip-path="url(#clip0_6_1191)">
<path d="M13.126 1.94799C13.126 1.39864 12.5109 1.39864 12.2375 1.46731C12.6202 1.16516 13.069 1.23842 13.2285 1.32997L16.9244 3.14217C17.2765 3.31484 17.4999 3.67412 17.4999 4.06786V15.9894C17.4999 16.3884 17.2705 16.7516 16.9112 16.9214L13.4335 18.5659C13.1943 18.6688 12.6749 18.9229 12.2375 18.5658C12.7843 18.6689 13.0804 18.2797 13.126 18.0165V1.94799Z" fill="#475C6F" fill-opacity="0.5"/>
<path d="M12.282 1.45744C12.5721 1.40011 13.1261 1.42669 13.1261 1.94803V6.05159L1.92099 14.5283C1.72514 14.6765 1.4495 14.6519 1.28268 14.4714L0.127833 13.2218C-0.0530849 13.026 -0.0404265 12.7196 0.156015 12.5396L12.2376 1.46734L12.282 1.45744Z" fill="#475C6F" fill-opacity="0.5"/>
<path d="M13.1261 13.9818L1.92099 5.50501C1.72514 5.35684 1.4495 5.38143 1.28268 5.56194L0.127833 6.81156C-0.0530849 7.00731 -0.0404265 7.31375 0.156015 7.49381L12.2376 18.566C12.7844 18.669 13.0806 18.2799 13.1261 18.0166V13.9818Z" fill="#475C6F" fill-opacity="0.5"/>
</g>
<defs>
<clipPath id="clip0_6_1191">
<rect width="20" height="20" fill="white"/>
</clipPath>
</defs>
</svg>
