<svg width="32" height="32" viewBox="0 0 32 32" fill="none" xmlns="http://www.w3.org/2000/svg">
<rect width="32" height="32" fill="#2C3E50"/>
<g id="Frame 33">
<g id="Main ">
<rect x="-1128" y="-788" width="1280" height="860" rx="20" fill="#F8FAFB"/>
</g>
<g id="Frame 19">
<g id="work-plan_svgrepo.com">
<path id="Vector" d="M12.48 10.2399H19.52C19.6897 10.2399 19.8525 10.1725 19.9726 10.0525C20.0926 9.93243 20.16 9.76964 20.16 9.5999V8.3199C20.16 7.81069 19.9577 7.32233 19.5977 6.96226C19.2376 6.60219 18.7492 6.3999 18.24 6.3999H13.76C13.2508 6.3999 12.7624 6.60219 12.4024 6.96226C12.0423 7.32233 11.84 7.81069 11.84 8.3199V9.5999C11.84 9.76964 11.9074 9.93243 12.0275 10.0525C12.1475 10.1725 12.3103 10.2399 12.48 10.2399ZM23.04 7.9999H22.4C22.3573 7.99707 22.3144 8.00341 22.2743 8.01849C22.2342 8.03357 22.1978 8.05705 22.1675 8.08735C22.1372 8.11765 22.1137 8.15407 22.0986 8.19418C22.0835 8.23428 22.0772 8.27715 22.08 8.3199V9.5999C22.08 10.2789 21.8103 10.93 21.3302 11.4101C20.8501 11.8902 20.199 12.1599 19.52 12.1599H12.48C11.8011 12.1599 11.1499 11.8902 10.6698 11.4101C10.1897 10.93 9.92001 10.2789 9.92001 9.5999V8.3199C9.92284 8.27715 9.9165 8.23428 9.90142 8.19418C9.88634 8.15407 9.86286 8.11765 9.83256 8.08735C9.80226 8.05705 9.76584 8.03357 9.72574 8.01849C9.68563 8.00341 9.64276 7.99707 9.60001 7.9999H8.96001C8.45079 7.9999 7.96243 8.20219 7.60236 8.56226C7.24229 8.92233 7.04001 9.41069 7.04001 9.9199V23.6799C7.04001 24.1891 7.24229 24.6775 7.60236 25.0375C7.96243 25.3976 8.45079 25.5999 8.96001 25.5999H23.04C23.5492 25.5999 24.0376 25.3976 24.3977 25.0375C24.7577 24.6775 24.96 24.1891 24.96 23.6799V9.9199C24.96 9.41069 24.7577 8.92233 24.3977 8.56226C24.0376 8.20219 23.5492 7.9999 23.04 7.9999ZM12.48 21.7599C12.48 21.9296 12.4126 22.0924 12.2926 22.2125C12.1725 22.3325 12.0097 22.3999 11.84 22.3999H11.2C11.0303 22.3999 10.8675 22.3325 10.7475 22.2125C10.6274 22.0924 10.56 21.9296 10.56 21.7599V21.1199C10.56 20.9502 10.6274 20.7874 10.7475 20.6674C10.8675 20.5473 11.0303 20.4799 11.2 20.4799H11.84C12.0097 20.4799 12.1725 20.5473 12.2926 20.6674C12.4126 20.7874 12.48 20.9502 12.48 21.1199V21.7599ZM12.48 18.5599C12.48 18.7296 12.4126 18.8924 12.2926 19.0125C12.1725 19.1325 12.0097 19.1999 11.84 19.1999H11.2C11.0303 19.1999 10.8675 19.1325 10.7475 19.0125C10.6274 18.8924 10.56 18.7296 10.56 18.5599V17.9199C10.56 17.7502 10.6274 17.5874 10.7475 17.4674C10.8675 17.3473 11.0303 17.2799 11.2 17.2799H11.84C12.0097 17.2799 12.1725 17.3473 12.2926 17.4674C12.4126 17.5874 12.48 17.7502 12.48 17.9199V18.5599ZM12.48 15.3599C12.48 15.5296 12.4126 15.6924 12.2926 15.8125C12.1725 15.9325 12.0097 15.9999 11.84 15.9999H11.2C11.0303 15.9999 10.8675 15.9325 10.7475 15.8125C10.6274 15.6924 10.56 15.5296 10.56 15.3599V14.7199C10.56 14.5502 10.6274 14.3874 10.7475 14.2674C10.8675 14.1473 11.0303 14.0799 11.2 14.0799H11.84C12.0097 14.0799 12.1725 14.1473 12.2926 14.2674C12.4126 14.3874 12.48 14.5502 12.48 14.7199V15.3599ZM21.44 21.7599C21.44 21.9296 21.3726 22.0924 21.2526 22.2125C21.1325 22.3325 20.9697 22.3999 20.8 22.3999H14.4C14.2303 22.3999 14.0675 22.3325 13.9475 22.2125C13.8274 22.0924 13.76 21.9296 13.76 21.7599V21.1199C13.76 20.9502 13.8274 20.7874 13.9475 20.6674C14.0675 20.5473 14.2303 20.4799 14.4 20.4799H20.8C20.9697 20.4799 21.1325 20.5473 21.2526 20.6674C21.3726 20.7874 21.44 20.9502 21.44 21.1199V21.7599ZM21.44 18.5599C21.44 18.7296 21.3726 18.8924 21.2526 19.0125C21.1325 19.1325 20.9697 19.1999 20.8 19.1999H14.4C14.2303 19.1999 14.0675 19.1325 13.9475 19.0125C13.8274 18.8924 13.76 18.7296 13.76 18.5599V17.9199C13.76 17.7502 13.8274 17.5874 13.9475 17.4674C14.0675 17.3473 14.2303 17.2799 14.4 17.2799H20.8C20.9697 17.2799 21.1325 17.3473 21.2526 17.4674C21.3726 17.5874 21.44 17.7502 21.44 17.9199V18.5599ZM21.44 15.3599C21.44 15.5296 21.3726 15.6924 21.2526 15.8125C21.1325 15.9325 20.9697 15.9999 20.8 15.9999H14.4C14.2303 15.9999 14.0675 15.9325 13.9475 15.8125C13.8274 15.6924 13.76 15.5296 13.76 15.3599V14.7199C13.76 14.5502 13.8274 14.3874 13.9475 14.2674C14.0675 14.1473 14.2303 14.0799 14.4 14.0799H20.8C20.9697 14.0799 21.1325 14.1473 21.2526 14.2674C21.3726 14.3874 21.44 14.5502 21.44 14.7199V15.3599Z" fill="#475C6F"/>
</g>
</g>
</g>
</svg>
